<svg xmlns="http://www.w3.org/2000/svg" width="8.68cm" height="8.68cm" preserveAspectRatio="none" version="1.1" viewBox="0 0 41 41"><g id="QRcode"><rect width="41" height="41" x="0" y="0" fill="#fff"/><g id="Pattern"><rect width="1" height="1" x="4" y="4" fill="#000"/><rect width="1" height="1" x="5" y="4" fill="#000"/><rect width="1" height="1" x="6" y="4" fill="#000"/><rect width="1" height="1" x="7" y="4" fill="#000"/><rect width="1" height="1" x="8" y="4" fill="#000"/><rect width="1" height="1" x="9" y="4" fill="#000"/><rect width="1" height="1" x="10" y="4" fill="#000"/><rect width="1" height="1" x="13" y="4" fill="#000"/><rect width="1" height="1" x="19" y="4" fill="#000"/><rect width="1" height="1" x="20" y="4" fill="#000"/><rect width="1" height="1" x="23" y="4" fill="#000"/><rect width="1" height="1" x="27" y="4" fill="#000"/><rect width="1" height="1" x="30" y="4" fill="#000"/><rect width="1" height="1" x="31" y="4" fill="#000"/><rect width="1" height="1" x="32" y="4" fill="#000"/><rect width="1" height="1" x="33" y="4" fill="#000"/><rect width="1" height="1" x="34" y="4" fill="#000"/><rect width="1" height="1" x="35" y="4" fill="#000"/><rect width="1" height="1" x="36" y="4" fill="#000"/><rect width="1" height="1" x="4" y="5" fill="#000"/><rect width="1" height="1" x="10" y="5" fill="#000"/><rect width="1" height="1" x="12" y="5" fill="#000"/><rect width="1" height="1" x="13" y="5" fill="#000"/><rect width="1" height="1" x="15" y="5" fill="#000"/><rect width="1" height="1" x="16" y="5" fill="#000"/><rect width="1" height="1" x="21" y="5" fill="#000"/><rect width="1" height="1" x="22" y="5" fill="#000"/><rect width="1" height="1" x="25" y="5" fill="#000"/><rect width="1" height="1" x="26" y="5" fill="#000"/><rect width="1" height="1" x="28" y="5" fill="#000"/><rect width="1" height="1" x="30" y="5" fill="#000"/><rect width="1" height="1" x="36" y="5" fill="#000"/><rect width="1" height="1" x="4" y="6" fill="#000"/><rect width="1" height="1" x="6" y="6" fill="#000"/><rect width="1" height="1" x="7" y="6" fill="#000"/><rect width="1" height="1" x="8" y="6" fill="#000"/><rect width="1" height="1" x="10" y="6" fill="#000"/><rect width="1" height="1" x="13" y="6" fill="#000"/><rect width="1" height="1" x="14" y="6" fill="#000"/><rect width="1" height="1" x="15" y="6" fill="#000"/><rect width="1" height="1" x="18" y="6" fill="#000"/><rect width="1" height="1" x="20" y="6" fill="#000"/><rect width="1" height="1" x="24" y="6" fill="#000"/><rect width="1" height="1" x="25" y="6" fill="#000"/><rect width="1" height="1" x="30" y="6" fill="#000"/><rect width="1" height="1" x="32" y="6" fill="#000"/><rect width="1" height="1" x="33" y="6" fill="#000"/><rect width="1" height="1" x="34" y="6" fill="#000"/><rect width="1" height="1" x="36" y="6" fill="#000"/><rect width="1" height="1" x="4" y="7" fill="#000"/><rect width="1" height="1" x="6" y="7" fill="#000"/><rect width="1" height="1" x="7" y="7" fill="#000"/><rect width="1" height="1" x="8" y="7" fill="#000"/><rect width="1" height="1" x="10" y="7" fill="#000"/><rect width="1" height="1" x="12" y="7" fill="#000"/><rect width="1" height="1" x="13" y="7" fill="#000"/><rect width="1" height="1" x="15" y="7" fill="#000"/><rect width="1" height="1" x="20" y="7" fill="#000"/><rect width="1" height="1" x="21" y="7" fill="#000"/><rect width="1" height="1" x="22" y="7" fill="#000"/><rect width="1" height="1" x="24" y="7" fill="#000"/><rect width="1" height="1" x="26" y="7" fill="#000"/><rect width="1" height="1" x="28" y="7" fill="#000"/><rect width="1" height="1" x="30" y="7" fill="#000"/><rect width="1" height="1" x="32" y="7" fill="#000"/><rect width="1" height="1" x="33" y="7" fill="#000"/><rect width="1" height="1" x="34" y="7" fill="#000"/><rect width="1" height="1" x="36" y="7" fill="#000"/><rect width="1" height="1" x="4" y="8" fill="#000"/><rect width="1" height="1" x="6" y="8" fill="#000"/><rect width="1" height="1" x="7" y="8" fill="#000"/><rect width="1" height="1" x="8" y="8" fill="#000"/><rect width="1" height="1" x="10" y="8" fill="#000"/><rect width="1" height="1" x="14" y="8" fill="#000"/><rect width="1" height="1" x="16" y="8" fill="#000"/><rect width="1" height="1" x="17" y="8" fill="#000"/><rect width="1" height="1" x="18" y="8" fill="#000"/><rect width="1" height="1" x="19" y="8" fill="#000"/><rect width="1" height="1" x="23" y="8" fill="#000"/><rect width="1" height="1" x="26" y="8" fill="#000"/><rect width="1" height="1" x="27" y="8" fill="#000"/><rect width="1" height="1" x="30" y="8" fill="#000"/><rect width="1" height="1" x="32" y="8" fill="#000"/><rect width="1" height="1" x="33" y="8" fill="#000"/><rect width="1" height="1" x="34" y="8" fill="#000"/><rect width="1" height="1" x="36" y="8" fill="#000"/><rect width="1" height="1" x="4" y="9" fill="#000"/><rect width="1" height="1" x="10" y="9" fill="#000"/><rect width="1" height="1" x="12" y="9" fill="#000"/><rect width="1" height="1" x="14" y="9" fill="#000"/><rect width="1" height="1" x="17" y="9" fill="#000"/><rect width="1" height="1" x="18" y="9" fill="#000"/><rect width="1" height="1" x="19" y="9" fill="#000"/><rect width="1" height="1" x="20" y="9" fill="#000"/><rect width="1" height="1" x="21" y="9" fill="#000"/><rect width="1" height="1" x="22" y="9" fill="#000"/><rect width="1" height="1" x="24" y="9" fill="#000"/><rect width="1" height="1" x="28" y="9" fill="#000"/><rect width="1" height="1" x="30" y="9" fill="#000"/><rect width="1" height="1" x="36" y="9" fill="#000"/><rect width="1" height="1" x="4" y="10" fill="#000"/><rect width="1" height="1" x="5" y="10" fill="#000"/><rect width="1" height="1" x="6" y="10" fill="#000"/><rect width="1" height="1" x="7" y="10" fill="#000"/><rect width="1" height="1" x="8" y="10" fill="#000"/><rect width="1" height="1" x="9" y="10" fill="#000"/><rect width="1" height="1" x="10" y="10" fill="#000"/><rect width="1" height="1" x="12" y="10" fill="#000"/><rect width="1" height="1" x="14" y="10" fill="#000"/><rect width="1" height="1" x="16" y="10" fill="#000"/><rect width="1" height="1" x="18" y="10" fill="#000"/><rect width="1" height="1" x="20" y="10" fill="#000"/><rect width="1" height="1" x="22" y="10" fill="#000"/><rect width="1" height="1" x="24" y="10" fill="#000"/><rect width="1" height="1" x="26" y="10" fill="#000"/><rect width="1" height="1" x="28" y="10" fill="#000"/><rect width="1" height="1" x="30" y="10" fill="#000"/><rect width="1" height="1" x="31" y="10" fill="#000"/><rect width="1" height="1" x="32" y="10" fill="#000"/><rect width="1" height="1" x="33" y="10" fill="#000"/><rect width="1" height="1" x="34" y="10" fill="#000"/><rect width="1" height="1" x="35" y="10" fill="#000"/><rect width="1" height="1" x="36" y="10" fill="#000"/><rect width="1" height="1" x="16" y="11" fill="#000"/><rect width="1" height="1" x="17" y="11" fill="#000"/><rect width="1" height="1" x="19" y="11" fill="#000"/><rect width="1" height="1" x="23" y="11" fill="#000"/><rect width="1" height="1" x="24" y="11" fill="#000"/><rect width="1" height="1" x="25" y="11" fill="#000"/><rect width="1" height="1" x="27" y="11" fill="#000"/><rect width="1" height="1" x="4" y="12" fill="#000"/><rect width="1" height="1" x="5" y="12" fill="#000"/><rect width="1" height="1" x="6" y="12" fill="#000"/><rect width="1" height="1" x="7" y="12" fill="#000"/><rect width="1" height="1" x="8" y="12" fill="#000"/><rect width="1" height="1" x="10" y="12" fill="#000"/><rect width="1" height="1" x="11" y="12" fill="#000"/><rect width="1" height="1" x="12" y="12" fill="#000"/><rect width="1" height="1" x="13" y="12" fill="#000"/><rect width="1" height="1" x="14" y="12" fill="#000"/><rect width="1" height="1" x="16" y="12" fill="#000"/><rect width="1" height="1" x="18" y="12" fill="#000"/><rect width="1" height="1" x="19" y="12" fill="#000"/><rect width="1" height="1" x="21" y="12" fill="#000"/><rect width="1" height="1" x="22" y="12" fill="#000"/><rect width="1" height="1" x="24" y="12" fill="#000"/><rect width="1" height="1" x="26" y="12" fill="#000"/><rect width="1" height="1" x="29" y="12" fill="#000"/><rect width="1" height="1" x="31" y="12" fill="#000"/><rect width="1" height="1" x="33" y="12" fill="#000"/><rect width="1" height="1" x="35" y="12" fill="#000"/><rect width="1" height="1" x="4" y="13" fill="#000"/><rect width="1" height="1" x="5" y="13" fill="#000"/><rect width="1" height="1" x="6" y="13" fill="#000"/><rect width="1" height="1" x="7" y="13" fill="#000"/><rect width="1" height="1" x="8" y="13" fill="#000"/><rect width="1" height="1" x="9" y="13" fill="#000"/><rect width="1" height="1" x="11" y="13" fill="#000"/><rect width="1" height="1" x="12" y="13" fill="#000"/><rect width="1" height="1" x="13" y="13" fill="#000"/><rect width="1" height="1" x="19" y="13" fill="#000"/><rect width="1" height="1" x="20" y="13" fill="#000"/><rect width="1" height="1" x="23" y="13" fill="#000"/><rect width="1" height="1" x="25" y="13" fill="#000"/><rect width="1" height="1" x="27" y="13" fill="#000"/><rect width="1" height="1" x="28" y="13" fill="#000"/><rect width="1" height="1" x="29" y="13" fill="#000"/><rect width="1" height="1" x="30" y="13" fill="#000"/><rect width="1" height="1" x="33" y="13" fill="#000"/><rect width="1" height="1" x="36" y="13" fill="#000"/><rect width="1" height="1" x="4" y="14" fill="#000"/><rect width="1" height="1" x="6" y="14" fill="#000"/><rect width="1" height="1" x="9" y="14" fill="#000"/><rect width="1" height="1" x="10" y="14" fill="#000"/><rect width="1" height="1" x="12" y="14" fill="#000"/><rect width="1" height="1" x="13" y="14" fill="#000"/><rect width="1" height="1" x="15" y="14" fill="#000"/><rect width="1" height="1" x="16" y="14" fill="#000"/><rect width="1" height="1" x="26" y="14" fill="#000"/><rect width="1" height="1" x="28" y="14" fill="#000"/><rect width="1" height="1" x="31" y="14" fill="#000"/><rect width="1" height="1" x="32" y="14" fill="#000"/><rect width="1" height="1" x="33" y="14" fill="#000"/><rect width="1" height="1" x="35" y="14" fill="#000"/><rect width="1" height="1" x="4" y="15" fill="#000"/><rect width="1" height="1" x="5" y="15" fill="#000"/><rect width="1" height="1" x="7" y="15" fill="#000"/><rect width="1" height="1" x="8" y="15" fill="#000"/><rect width="1" height="1" x="9" y="15" fill="#000"/><rect width="1" height="1" x="13" y="15" fill="#000"/><rect width="1" height="1" x="14" y="15" fill="#000"/><rect width="1" height="1" x="15" y="15" fill="#000"/><rect width="1" height="1" x="18" y="15" fill="#000"/><rect width="1" height="1" x="20" y="15" fill="#000"/><rect width="1" height="1" x="25" y="15" fill="#000"/><rect width="1" height="1" x="26" y="15" fill="#000"/><rect width="1" height="1" x="28" y="15" fill="#000"/><rect width="1" height="1" x="29" y="15" fill="#000"/><rect width="1" height="1" x="30" y="15" fill="#000"/><rect width="1" height="1" x="33" y="15" fill="#000"/><rect width="1" height="1" x="34" y="15" fill="#000"/><rect width="1" height="1" x="35" y="15" fill="#000"/><rect width="1" height="1" x="36" y="15" fill="#000"/><rect width="1" height="1" x="9" y="16" fill="#000"/><rect width="1" height="1" x="10" y="16" fill="#000"/><rect width="1" height="1" x="12" y="16" fill="#000"/><rect width="1" height="1" x="13" y="16" fill="#000"/><rect width="1" height="1" x="15" y="16" fill="#000"/><rect width="1" height="1" x="20" y="16" fill="#000"/><rect width="1" height="1" x="21" y="16" fill="#000"/><rect width="1" height="1" x="23" y="16" fill="#000"/><rect width="1" height="1" x="29" y="16" fill="#000"/><rect width="1" height="1" x="32" y="16" fill="#000"/><rect width="1" height="1" x="4" y="17" fill="#000"/><rect width="1" height="1" x="5" y="17" fill="#000"/><rect width="1" height="1" x="7" y="17" fill="#000"/><rect width="1" height="1" x="11" y="17" fill="#000"/><rect width="1" height="1" x="12" y="17" fill="#000"/><rect width="1" height="1" x="13" y="17" fill="#000"/><rect width="1" height="1" x="14" y="17" fill="#000"/><rect width="1" height="1" x="16" y="17" fill="#000"/><rect width="1" height="1" x="17" y="17" fill="#000"/><rect width="1" height="1" x="18" y="17" fill="#000"/><rect width="1" height="1" x="19" y="17" fill="#000"/><rect width="1" height="1" x="23" y="17" fill="#000"/><rect width="1" height="1" x="24" y="17" fill="#000"/><rect width="1" height="1" x="25" y="17" fill="#000"/><rect width="1" height="1" x="26" y="17" fill="#000"/><rect width="1" height="1" x="27" y="17" fill="#000"/><rect width="1" height="1" x="30" y="17" fill="#000"/><rect width="1" height="1" x="31" y="17" fill="#000"/><rect width="1" height="1" x="36" y="17" fill="#000"/><rect width="1" height="1" x="4" y="18" fill="#000"/><rect width="1" height="1" x="5" y="18" fill="#000"/><rect width="1" height="1" x="10" y="18" fill="#000"/><rect width="1" height="1" x="12" y="18" fill="#000"/><rect width="1" height="1" x="13" y="18" fill="#000"/><rect width="1" height="1" x="17" y="18" fill="#000"/><rect width="1" height="1" x="18" y="18" fill="#000"/><rect width="1" height="1" x="19" y="18" fill="#000"/><rect width="1" height="1" x="20" y="18" fill="#000"/><rect width="1" height="1" x="24" y="18" fill="#000"/><rect width="1" height="1" x="26" y="18" fill="#000"/><rect width="1" height="1" x="28" y="18" fill="#000"/><rect width="1" height="1" x="29" y="18" fill="#000"/><rect width="1" height="1" x="30" y="18" fill="#000"/><rect width="1" height="1" x="33" y="18" fill="#000"/><rect width="1" height="1" x="34" y="18" fill="#000"/><rect width="1" height="1" x="35" y="18" fill="#000"/><rect width="1" height="1" x="7" y="19" fill="#000"/><rect width="1" height="1" x="9" y="19" fill="#000"/><rect width="1" height="1" x="12" y="19" fill="#000"/><rect width="1" height="1" x="13" y="19" fill="#000"/><rect width="1" height="1" x="16" y="19" fill="#000"/><rect width="1" height="1" x="17" y="19" fill="#000"/><rect width="1" height="1" x="19" y="19" fill="#000"/><rect width="1" height="1" x="22" y="19" fill="#000"/><rect width="1" height="1" x="25" y="19" fill="#000"/><rect width="1" height="1" x="26" y="19" fill="#000"/><rect width="1" height="1" x="27" y="19" fill="#000"/><rect width="1" height="1" x="30" y="19" fill="#000"/><rect width="1" height="1" x="31" y="19" fill="#000"/><rect width="1" height="1" x="33" y="19" fill="#000"/><rect width="1" height="1" x="34" y="19" fill="#000"/><rect width="1" height="1" x="4" y="20" fill="#000"/><rect width="1" height="1" x="5" y="20" fill="#000"/><rect width="1" height="1" x="7" y="20" fill="#000"/><rect width="1" height="1" x="8" y="20" fill="#000"/><rect width="1" height="1" x="9" y="20" fill="#000"/><rect width="1" height="1" x="10" y="20" fill="#000"/><rect width="1" height="1" x="11" y="20" fill="#000"/><rect width="1" height="1" x="12" y="20" fill="#000"/><rect width="1" height="1" x="13" y="20" fill="#000"/><rect width="1" height="1" x="16" y="20" fill="#000"/><rect width="1" height="1" x="18" y="20" fill="#000"/><rect width="1" height="1" x="19" y="20" fill="#000"/><rect width="1" height="1" x="21" y="20" fill="#000"/><rect width="1" height="1" x="24" y="20" fill="#000"/><rect width="1" height="1" x="26" y="20" fill="#000"/><rect width="1" height="1" x="28" y="20" fill="#000"/><rect width="1" height="1" x="29" y="20" fill="#000"/><rect width="1" height="1" x="32" y="20" fill="#000"/><rect width="1" height="1" x="35" y="20" fill="#000"/><rect width="1" height="1" x="7" y="21" fill="#000"/><rect width="1" height="1" x="9" y="21" fill="#000"/><rect width="1" height="1" x="11" y="21" fill="#000"/><rect width="1" height="1" x="13" y="21" fill="#000"/><rect width="1" height="1" x="19" y="21" fill="#000"/><rect width="1" height="1" x="20" y="21" fill="#000"/><rect width="1" height="1" x="21" y="21" fill="#000"/><rect width="1" height="1" x="23" y="21" fill="#000"/><rect width="1" height="1" x="24" y="21" fill="#000"/><rect width="1" height="1" x="25" y="21" fill="#000"/><rect width="1" height="1" x="26" y="21" fill="#000"/><rect width="1" height="1" x="27" y="21" fill="#000"/><rect width="1" height="1" x="29" y="21" fill="#000"/><rect width="1" height="1" x="30" y="21" fill="#000"/><rect width="1" height="1" x="33" y="21" fill="#000"/><rect width="1" height="1" x="35" y="21" fill="#000"/><rect width="1" height="1" x="36" y="21" fill="#000"/><rect width="1" height="1" x="4" y="22" fill="#000"/><rect width="1" height="1" x="6" y="22" fill="#000"/><rect width="1" height="1" x="9" y="22" fill="#000"/><rect width="1" height="1" x="10" y="22" fill="#000"/><rect width="1" height="1" x="11" y="22" fill="#000"/><rect width="1" height="1" x="14" y="22" fill="#000"/><rect width="1" height="1" x="15" y="22" fill="#000"/><rect width="1" height="1" x="16" y="22" fill="#000"/><rect width="1" height="1" x="21" y="22" fill="#000"/><rect width="1" height="1" x="22" y="22" fill="#000"/><rect width="1" height="1" x="24" y="22" fill="#000"/><rect width="1" height="1" x="28" y="22" fill="#000"/><rect width="1" height="1" x="29" y="22" fill="#000"/><rect width="1" height="1" x="31" y="22" fill="#000"/><rect width="1" height="1" x="35" y="22" fill="#000"/><rect width="1" height="1" x="5" y="23" fill="#000"/><rect width="1" height="1" x="11" y="23" fill="#000"/><rect width="1" height="1" x="12" y="23" fill="#000"/><rect width="1" height="1" x="15" y="23" fill="#000"/><rect width="1" height="1" x="18" y="23" fill="#000"/><rect width="1" height="1" x="20" y="23" fill="#000"/><rect width="1" height="1" x="22" y="23" fill="#000"/><rect width="1" height="1" x="25" y="23" fill="#000"/><rect width="1" height="1" x="26" y="23" fill="#000"/><rect width="1" height="1" x="27" y="23" fill="#000"/><rect width="1" height="1" x="28" y="23" fill="#000"/><rect width="1" height="1" x="30" y="23" fill="#000"/><rect width="1" height="1" x="31" y="23" fill="#000"/><rect width="1" height="1" x="33" y="23" fill="#000"/><rect width="1" height="1" x="34" y="23" fill="#000"/><rect width="1" height="1" x="35" y="23" fill="#000"/><rect width="1" height="1" x="6" y="24" fill="#000"/><rect width="1" height="1" x="8" y="24" fill="#000"/><rect width="1" height="1" x="10" y="24" fill="#000"/><rect width="1" height="1" x="12" y="24" fill="#000"/><rect width="1" height="1" x="15" y="24" fill="#000"/><rect width="1" height="1" x="21" y="24" fill="#000"/><rect width="1" height="1" x="23" y="24" fill="#000"/><rect width="1" height="1" x="24" y="24" fill="#000"/><rect width="1" height="1" x="32" y="24" fill="#000"/><rect width="1" height="1" x="36" y="24" fill="#000"/><rect width="1" height="1" x="4" y="25" fill="#000"/><rect width="1" height="1" x="7" y="25" fill="#000"/><rect width="1" height="1" x="8" y="25" fill="#000"/><rect width="1" height="1" x="9" y="25" fill="#000"/><rect width="1" height="1" x="11" y="25" fill="#000"/><rect width="1" height="1" x="12" y="25" fill="#000"/><rect width="1" height="1" x="13" y="25" fill="#000"/><rect width="1" height="1" x="16" y="25" fill="#000"/><rect width="1" height="1" x="17" y="25" fill="#000"/><rect width="1" height="1" x="18" y="25" fill="#000"/><rect width="1" height="1" x="19" y="25" fill="#000"/><rect width="1" height="1" x="23" y="25" fill="#000"/><rect width="1" height="1" x="24" y="25" fill="#000"/><rect width="1" height="1" x="25" y="25" fill="#000"/><rect width="1" height="1" x="26" y="25" fill="#000"/><rect width="1" height="1" x="27" y="25" fill="#000"/><rect width="1" height="1" x="28" y="25" fill="#000"/><rect width="1" height="1" x="29" y="25" fill="#000"/><rect width="1" height="1" x="30" y="25" fill="#000"/><rect width="1" height="1" x="34" y="25" fill="#000"/><rect width="1" height="1" x="36" y="25" fill="#000"/><rect width="1" height="1" x="4" y="26" fill="#000"/><rect width="1" height="1" x="6" y="26" fill="#000"/><rect width="1" height="1" x="10" y="26" fill="#000"/><rect width="1" height="1" x="12" y="26" fill="#000"/><rect width="1" height="1" x="14" y="26" fill="#000"/><rect width="1" height="1" x="17" y="26" fill="#000"/><rect width="1" height="1" x="18" y="26" fill="#000"/><rect width="1" height="1" x="19" y="26" fill="#000"/><rect width="1" height="1" x="20" y="26" fill="#000"/><rect width="1" height="1" x="21" y="26" fill="#000"/><rect width="1" height="1" x="25" y="26" fill="#000"/><rect width="1" height="1" x="28" y="26" fill="#000"/><rect width="1" height="1" x="29" y="26" fill="#000"/><rect width="1" height="1" x="31" y="26" fill="#000"/><rect width="1" height="1" x="32" y="26" fill="#000"/><rect width="1" height="1" x="33" y="26" fill="#000"/><rect width="1" height="1" x="35" y="26" fill="#000"/><rect width="1" height="1" x="4" y="27" fill="#000"/><rect width="1" height="1" x="14" y="27" fill="#000"/><rect width="1" height="1" x="16" y="27" fill="#000"/><rect width="1" height="1" x="17" y="27" fill="#000"/><rect width="1" height="1" x="19" y="27" fill="#000"/><rect width="1" height="1" x="22" y="27" fill="#000"/><rect width="1" height="1" x="25" y="27" fill="#000"/><rect width="1" height="1" x="28" y="27" fill="#000"/><rect width="1" height="1" x="29" y="27" fill="#000"/><rect width="1" height="1" x="31" y="27" fill="#000"/><rect width="1" height="1" x="32" y="27" fill="#000"/><rect width="1" height="1" x="33" y="27" fill="#000"/><rect width="1" height="1" x="34" y="27" fill="#000"/><rect width="1" height="1" x="36" y="27" fill="#000"/><rect width="1" height="1" x="4" y="28" fill="#000"/><rect width="1" height="1" x="6" y="28" fill="#000"/><rect width="1" height="1" x="7" y="28" fill="#000"/><rect width="1" height="1" x="10" y="28" fill="#000"/><rect width="1" height="1" x="13" y="28" fill="#000"/><rect width="1" height="1" x="14" y="28" fill="#000"/><rect width="1" height="1" x="16" y="28" fill="#000"/><rect width="1" height="1" x="18" y="28" fill="#000"/><rect width="1" height="1" x="19" y="28" fill="#000"/><rect width="1" height="1" x="20" y="28" fill="#000"/><rect width="1" height="1" x="21" y="28" fill="#000"/><rect width="1" height="1" x="23" y="28" fill="#000"/><rect width="1" height="1" x="24" y="28" fill="#000"/><rect width="1" height="1" x="26" y="28" fill="#000"/><rect width="1" height="1" x="27" y="28" fill="#000"/><rect width="1" height="1" x="28" y="28" fill="#000"/><rect width="1" height="1" x="29" y="28" fill="#000"/><rect width="1" height="1" x="30" y="28" fill="#000"/><rect width="1" height="1" x="31" y="28" fill="#000"/><rect width="1" height="1" x="32" y="28" fill="#000"/><rect width="1" height="1" x="12" y="29" fill="#000"/><rect width="1" height="1" x="20" y="29" fill="#000"/><rect width="1" height="1" x="23" y="29" fill="#000"/><rect width="1" height="1" x="27" y="29" fill="#000"/><rect width="1" height="1" x="28" y="29" fill="#000"/><rect width="1" height="1" x="32" y="29" fill="#000"/><rect width="1" height="1" x="34" y="29" fill="#000"/><rect width="1" height="1" x="36" y="29" fill="#000"/><rect width="1" height="1" x="4" y="30" fill="#000"/><rect width="1" height="1" x="5" y="30" fill="#000"/><rect width="1" height="1" x="6" y="30" fill="#000"/><rect width="1" height="1" x="7" y="30" fill="#000"/><rect width="1" height="1" x="8" y="30" fill="#000"/><rect width="1" height="1" x="9" y="30" fill="#000"/><rect width="1" height="1" x="10" y="30" fill="#000"/><rect width="1" height="1" x="12" y="30" fill="#000"/><rect width="1" height="1" x="15" y="30" fill="#000"/><rect width="1" height="1" x="16" y="30" fill="#000"/><rect width="1" height="1" x="19" y="30" fill="#000"/><rect width="1" height="1" x="20" y="30" fill="#000"/><rect width="1" height="1" x="21" y="30" fill="#000"/><rect width="1" height="1" x="24" y="30" fill="#000"/><rect width="1" height="1" x="25" y="30" fill="#000"/><rect width="1" height="1" x="26" y="30" fill="#000"/><rect width="1" height="1" x="27" y="30" fill="#000"/><rect width="1" height="1" x="28" y="30" fill="#000"/><rect width="1" height="1" x="30" y="30" fill="#000"/><rect width="1" height="1" x="32" y="30" fill="#000"/><rect width="1" height="1" x="33" y="30" fill="#000"/><rect width="1" height="1" x="34" y="30" fill="#000"/><rect width="1" height="1" x="35" y="30" fill="#000"/><rect width="1" height="1" x="4" y="31" fill="#000"/><rect width="1" height="1" x="10" y="31" fill="#000"/><rect width="1" height="1" x="13" y="31" fill="#000"/><rect width="1" height="1" x="14" y="31" fill="#000"/><rect width="1" height="1" x="15" y="31" fill="#000"/><rect width="1" height="1" x="18" y="31" fill="#000"/><rect width="1" height="1" x="19" y="31" fill="#000"/><rect width="1" height="1" x="20" y="31" fill="#000"/><rect width="1" height="1" x="22" y="31" fill="#000"/><rect width="1" height="1" x="23" y="31" fill="#000"/><rect width="1" height="1" x="25" y="31" fill="#000"/><rect width="1" height="1" x="26" y="31" fill="#000"/><rect width="1" height="1" x="27" y="31" fill="#000"/><rect width="1" height="1" x="28" y="31" fill="#000"/><rect width="1" height="1" x="32" y="31" fill="#000"/><rect width="1" height="1" x="33" y="31" fill="#000"/><rect width="1" height="1" x="34" y="31" fill="#000"/><rect width="1" height="1" x="36" y="31" fill="#000"/><rect width="1" height="1" x="4" y="32" fill="#000"/><rect width="1" height="1" x="6" y="32" fill="#000"/><rect width="1" height="1" x="7" y="32" fill="#000"/><rect width="1" height="1" x="8" y="32" fill="#000"/><rect width="1" height="1" x="10" y="32" fill="#000"/><rect width="1" height="1" x="12" y="32" fill="#000"/><rect width="1" height="1" x="13" y="32" fill="#000"/><rect width="1" height="1" x="14" y="32" fill="#000"/><rect width="1" height="1" x="15" y="32" fill="#000"/><rect width="1" height="1" x="21" y="32" fill="#000"/><rect width="1" height="1" x="24" y="32" fill="#000"/><rect width="1" height="1" x="28" y="32" fill="#000"/><rect width="1" height="1" x="29" y="32" fill="#000"/><rect width="1" height="1" x="30" y="32" fill="#000"/><rect width="1" height="1" x="31" y="32" fill="#000"/><rect width="1" height="1" x="32" y="32" fill="#000"/><rect width="1" height="1" x="33" y="32" fill="#000"/><rect width="1" height="1" x="35" y="32" fill="#000"/><rect width="1" height="1" x="4" y="33" fill="#000"/><rect width="1" height="1" x="6" y="33" fill="#000"/><rect width="1" height="1" x="7" y="33" fill="#000"/><rect width="1" height="1" x="8" y="33" fill="#000"/><rect width="1" height="1" x="10" y="33" fill="#000"/><rect width="1" height="1" x="12" y="33" fill="#000"/><rect width="1" height="1" x="16" y="33" fill="#000"/><rect width="1" height="1" x="17" y="33" fill="#000"/><rect width="1" height="1" x="18" y="33" fill="#000"/><rect width="1" height="1" x="20" y="33" fill="#000"/><rect width="1" height="1" x="22" y="33" fill="#000"/><rect width="1" height="1" x="23" y="33" fill="#000"/><rect width="1" height="1" x="24" y="33" fill="#000"/><rect width="1" height="1" x="26" y="33" fill="#000"/><rect width="1" height="1" x="27" y="33" fill="#000"/><rect width="1" height="1" x="29" y="33" fill="#000"/><rect width="1" height="1" x="32" y="33" fill="#000"/><rect width="1" height="1" x="34" y="33" fill="#000"/><rect width="1" height="1" x="35" y="33" fill="#000"/><rect width="1" height="1" x="36" y="33" fill="#000"/><rect width="1" height="1" x="4" y="34" fill="#000"/><rect width="1" height="1" x="6" y="34" fill="#000"/><rect width="1" height="1" x="7" y="34" fill="#000"/><rect width="1" height="1" x="8" y="34" fill="#000"/><rect width="1" height="1" x="10" y="34" fill="#000"/><rect width="1" height="1" x="12" y="34" fill="#000"/><rect width="1" height="1" x="17" y="34" fill="#000"/><rect width="1" height="1" x="18" y="34" fill="#000"/><rect width="1" height="1" x="19" y="34" fill="#000"/><rect width="1" height="1" x="20" y="34" fill="#000"/><rect width="1" height="1" x="21" y="34" fill="#000"/><rect width="1" height="1" x="25" y="34" fill="#000"/><rect width="1" height="1" x="28" y="34" fill="#000"/><rect width="1" height="1" x="30" y="34" fill="#000"/><rect width="1" height="1" x="31" y="34" fill="#000"/><rect width="1" height="1" x="33" y="34" fill="#000"/><rect width="1" height="1" x="4" y="35" fill="#000"/><rect width="1" height="1" x="10" y="35" fill="#000"/><rect width="1" height="1" x="12" y="35" fill="#000"/><rect width="1" height="1" x="14" y="35" fill="#000"/><rect width="1" height="1" x="16" y="35" fill="#000"/><rect width="1" height="1" x="17" y="35" fill="#000"/><rect width="1" height="1" x="22" y="35" fill="#000"/><rect width="1" height="1" x="23" y="35" fill="#000"/><rect width="1" height="1" x="25" y="35" fill="#000"/><rect width="1" height="1" x="26" y="35" fill="#000"/><rect width="1" height="1" x="29" y="35" fill="#000"/><rect width="1" height="1" x="31" y="35" fill="#000"/><rect width="1" height="1" x="33" y="35" fill="#000"/><rect width="1" height="1" x="34" y="35" fill="#000"/><rect width="1" height="1" x="4" y="36" fill="#000"/><rect width="1" height="1" x="5" y="36" fill="#000"/><rect width="1" height="1" x="6" y="36" fill="#000"/><rect width="1" height="1" x="7" y="36" fill="#000"/><rect width="1" height="1" x="8" y="36" fill="#000"/><rect width="1" height="1" x="9" y="36" fill="#000"/><rect width="1" height="1" x="10" y="36" fill="#000"/><rect width="1" height="1" x="12" y="36" fill="#000"/><rect width="1" height="1" x="16" y="36" fill="#000"/><rect width="1" height="1" x="18" y="36" fill="#000"/><rect width="1" height="1" x="19" y="36" fill="#000"/><rect width="1" height="1" x="21" y="36" fill="#000"/><rect width="1" height="1" x="23" y="36" fill="#000"/><rect width="1" height="1" x="24" y="36" fill="#000"/><rect width="1" height="1" x="26" y="36" fill="#000"/><rect width="1" height="1" x="27" y="36" fill="#000"/><rect width="1" height="1" x="28" y="36" fill="#000"/><rect width="1" height="1" x="30" y="36" fill="#000"/><rect width="1" height="1" x="31" y="36" fill="#000"/><rect width="1" height="1" x="32" y="36" fill="#000"/><rect width="1" height="1" x="35" y="36" fill="#000"/></g></g></svg>