<svg xmlns="http://www.w3.org/2000/svg" xmlns:ns1="http://sozi.baierouge.fr" xmlns:svg="http://www.w3.org/2000/svg" xmlns:xlink="http://www.w3.org/1999/xlink" id="svg2" version="1.1" viewBox="0 0 820 650"><defs id="defs4"><linearGradient id="linearGradient3645"><stop id="stop3647" offset="0" style="stop-color:#fff;stop-opacity:0"/><stop id="stop3649" offset="1" style="stop-color:#fff"/></linearGradient><linearGradient id="linearGradient3865" x1="603.79" x2="611.93" y1="313.38" y2="533.38" gradientTransform="translate(22.857 279.7)" gradientUnits="userSpaceOnUse"><stop id="stop3861" offset="0" style="stop-color:#000"/><stop id="stop3863" offset="1" style="stop-color:#000;stop-opacity:0"/></linearGradient><filter id="filter3887" width="1.085" height="1.472" x="-.042" y="-.236" color-interpolation-filters="sRGB"><feGaussianBlur id="feGaussianBlur3889" stdDeviation="12.216"/></filter><filter id="filter3911" color-interpolation-filters="sRGB"><feGaussianBlur id="feGaussianBlur3913" stdDeviation="7.228"/></filter><linearGradient id="linearGradient3767" x1="695.56" x2="927.5" y1="547.16" y2="361.95" gradientTransform="matrix(.88146 0 0 .88146 132.3 317.38)" gradientUnits="userSpaceOnUse" xlink:href="#linearGradient3645"/><linearGradient id="linearGradient2906" x1="556.43" x2="927.5" y1="619.09" y2="361.95" gradientTransform="translate(25.714 268.27)" gradientUnits="userSpaceOnUse" xlink:href="#linearGradient3645"/><linearGradient id="linearGradient2909" x1="403.04" x2="910.34" y1="706" y2="361.72" gradientTransform="translate(22.857 279.7)" gradientUnits="userSpaceOnUse" xlink:href="#linearGradient3645"/><linearGradient id="linearGradient2916" x1="260.58" x2="972.38" y1="746.7" y2="746.7" gradientTransform="translate(22.857 -28.571)" gradientUnits="userSpaceOnUse"><stop id="stop3737" offset="0" style="stop-color:#2b0000"/><stop id="stop3739" offset="1" style="stop-color:#ff2a2a"/></linearGradient><linearGradient id="linearGradient2918" x1="255" x2="960.32" y1="902.11" y2="905.56" gradientTransform="translate(22.857 -28.571)" gradientUnits="userSpaceOnUse"><stop id="stop3743" offset="0" style="stop-color:#4d4d4d"/><stop id="stop3852" offset=".163" style="stop-color:#fff"/><stop id="stop3745" offset=".321" style="stop-color:#000"/><stop id="stop3747" offset=".523" style="stop-color:#fff"/><stop id="stop3749" offset=".749" style="stop-color:#000"/><stop id="stop3751" offset=".929" style="stop-color:#fff"/><stop id="stop3753" offset="1" style="stop-color:#000"/></linearGradient><linearGradient id="linearGradient2922" x1="243.65" x2="780.07" y1="652.25" y2="295.98" gradientTransform="translate(22.857 279.7)" gradientUnits="userSpaceOnUse"><stop id="stop3595" offset="0" style="stop-color:#000"/><stop id="stop3597" offset="1" style="stop-color:#ff2a2a"/></linearGradient><linearGradient id="linearGradient2924" x1="243.65" x2="780.07" y1="652.25" y2="295.98" gradientTransform="translate(22.857 279.7)" gradientUnits="userSpaceOnUse"><stop id="stop3699" offset="0" style="stop-color:#000"/><stop id="stop3701" offset=".119" style="stop-color:#fff"/><stop id="stop3703" offset=".238" style="stop-color:#fff"/><stop id="stop3705" offset=".473" style="stop-color:#000"/><stop id="stop3707" offset=".735" style="stop-color:#fff"/><stop id="stop3709" offset="1" style="stop-color:#000"/></linearGradient><linearGradient id="linearGradient2927" x1="191.79" x2="915" y1="383.34" y2="309.09" gradientTransform="matrix(1.0372 0 0 1.0225 1.044 265.51)" gradientUnits="userSpaceOnUse"><stop id="stop3679" offset="0" style="stop-color:#000"/><stop id="stop3681" offset=".119" style="stop-color:#fff"/><stop id="stop3683" offset=".238" style="stop-color:#fff"/><stop id="stop3685" offset=".473" style="stop-color:#000"/><stop id="stop3687" offset=".735" style="stop-color:#fff"/><stop id="stop3689" offset="1" style="stop-color:#000"/></linearGradient><linearGradient id="linearGradient2932" x1="559.12" x2="478.3" y1="199.98" y2="341.9" gradientTransform="translate(185.42 455.33)" gradientUnits="userSpaceOnUse"><stop id="stop3758" offset="0" style="stop-color:#fff"/><stop id="stop3760" offset="1" style="stop-color:#fff;stop-opacity:0"/></linearGradient><linearGradient id="linearGradient3720" x1="657.11" x2="586.39" y1="367.16" y2="416.15" gradientUnits="userSpaceOnUse"><stop id="stop3713" offset="0" style="stop-color:#fff"/><stop id="stop3715" offset="1" style="stop-color:#fff;stop-opacity:0"/></linearGradient></defs><g id="layer1" transform="translate(-185.42 -455.33)"><g id="g3722"><path id="path3691" d="m265.23 488.11 141.19 0.50507c31.116 0 55.586 28.077 55.586 58.752l448.1 0.21896c30.372 0 53.849 37.844 53.849 67.786l-0.0685 359.06c-5.5667 22.635-7.3222 20.686-36.135 22.732l-605.87 77.079c-30.372 0-37.741 1.6499-42.885-27.848-13.332-76.45-44.915-340.59-68.225-504.6 0-29.942 24.081-53.681 54.453-53.681h-0.00003z" style="fill-rule:evenodd;stroke:url(#linearGradient2927);stroke-width:5;fill:#b3b3b3"/><path id="rect2816" d="m285.36 506.29h120c30 0 52.5 22.5 52.5 52.5l449.29 4.2857c29.283 0 52.857 23.574 52.857 52.857l-8.673 326.92c0 29.283 4.752 41.674-24.531 41.674l-611.71 86.984c-28.778-6.566-29.202-2.5889-33.935-30.215-24.331-142.03-27.866-320.61-42.234-482.5 0-29.283 17.156-52.5 46.439-52.5z" style="fill-rule:evenodd;stroke:url(#linearGradient2924);stroke-width:5;fill:url(#linearGradient2922)"/><path id="path3854" d="m425.72 590.06c184.9-0.3245 329.77 0.26124 501.43-0.50102 9.0744-1.2813 14.513 1.5033 21.504 6.9067 27.828 22.17 1.3092 34.999-11.502 50.184l-652.15 201.07c-1.8803-9.4171-24.809-215.31-25.773-226.21 98.999 2.4105 175.44 11.726 166.49-31.451z" style="filter:url(#filter3887);stroke:#000;stroke-width:1px;fill:url(#linearGradient3865)"/><path id="path3601" d="m457.86 603.79h480c29.283 0 52.857 20.819 52.857 46.679 0 0-23.666 308.4-26.01 321.36-4.0621 22.442-4.1261 22.759-33.195 26.292l-618.42 75.161c-22.197 1.4697-25.744-3.8211-18.076-3.7941 20.775-70.015-6.8164-279.26-17.159-413.19 1.194-8.5623 7.8571-15 15-15h135c16.461-2.5011 26.87-19.526 30-37.5z" style="fill-rule:evenodd;stroke:url(#linearGradient2918);stroke-width:5;fill:url(#linearGradient2916)"/><path id="path6147" d="m575.18 897.47s153.79 31.52 193.63-158.09l5.9974 78.558 67.684 3.8794-167.93 189.12-99.385-113.47z" style="fill:none"/><path id="path2245" d="m851.29 817.31-77.65-0.13-12.18-176.33l-193.69 0.0674 10.076 176.16-78.29 0.0838 190.19 194.91 161.55-194.77-0.00005-0.00013z" style="opacity:.749;stroke-linejoin:bevel;fill-rule:evenodd;fill-opacity:.48235;stroke:#fff;stroke-width:5;fill:#fff"/><path id="path3752" d="m571.8 645.71 9.5964 172.23c100.74 12.005 188.47 21.983 175.77-173.24l-184.86 0.00001" style="fill:url(#linearGradient2932)"/><path id="path3755" d="m315.25 660.12c290.32-17.25 391.35 185.51 461.73 307.74l-438.71 63.34-31.07-359.45c-0.2128-6.1097 2.7539-11.983 8.054-11.633z" style="opacity:.75096;fill:url(#linearGradient2909)"/><path id="path2935" d="m587.4 365.64 70.711 0.50508-74.246 89.904 1.5152-90.409" transform="translate(185.42 455.33)" style="fill:url(#linearGradient3720)"/><path id="path3891" d="m542.18 629.5h363.6c39.666 0 61.792-2.8055 61.792 36.86l-19.077 214.36c0 19.833-18.052 32.542-41.54 39.666l-51.75 6.5c-59.29-109.78-118.88-224.81-313.02-297.39" style="opacity:.753;filter:url(#filter3911);fill:url(#linearGradient3767)"/><path id="path3640" d="m490.71 622.36h412.5c45 0 70.102-3.1828 70.102 41.817l-21.642 243.18c0 22.5-20.48 36.919-47.127 45l-58.71 7.388c-67.26-124.55-134.86-255.04-355.12-337.39" style="opacity:.753;fill:url(#linearGradient2906)"/></g></g><metadata/></svg>