<svg xmlns="http://www.w3.org/2000/svg" xmlns:svg="http://www.w3.org/2000/svg" xmlns:xlink="http://www.w3.org/1999/xlink" id="svg2" width="369.614" height="369.614" version="1.1"><defs id="defs4"><linearGradient id="linearGradient3958"><stop id="stop3960" offset="0" style="stop-color:#fff;stop-opacity:1"/><stop id="stop3962" offset="1" style="stop-color:#fff;stop-opacity:0"/></linearGradient><clipPath id="clipPath3889"><g id="g3891" transform="translate(-5,-0.71428572)"><rect id="rect3893" width="50" height="209.286" x="-107.664" y="209.312" style="fill:#008066;fill-opacity:1;stroke:#9e9f9f;stroke-width:0;stroke-miterlimit:4;stroke-opacity:1;stroke-dasharray:none"/><rect id="rect3895" width="50" height="135" x="-70.521" y="283.241" style="fill:#008066;fill-opacity:1;stroke:#9e9f9f;stroke-width:0;stroke-miterlimit:4;stroke-opacity:1;stroke-dasharray:none"/></g></clipPath><clipPath id="clipPath3847"><g id="g3849" transform="translate(2.1428575,1.4285713)"><g id="g3851"><rect id="rect3853" width="73.571" height="261.429" x="58.05" y="235.741" style="fill:#008066;fill-opacity:1;stroke:#9e9f9f;stroke-width:0;stroke-miterlimit:4;stroke-opacity:1;stroke-dasharray:none"/></g><rect id="rect3855" width="73.571" height="174.286" x="-7.307" y="322.884" style="fill:#008066;fill-opacity:1;stroke:#9e9f9f;stroke-width:0;stroke-miterlimit:4;stroke-opacity:1;stroke-dasharray:none"/></g></clipPath><linearGradient id="linearGradient3781"><stop id="stop3783" offset="0" style="stop-color:#59f;stop-opacity:1"/><stop id="stop3785" offset="1" style="stop-color:#fff;stop-opacity:1"/></linearGradient><radialGradient id="radialGradient3964" cx="193.444" cy="184.251" r="157.079" fx="193.444" fy="184.251" gradientUnits="userSpaceOnUse" xlink:href="#linearGradient3958"/><filter id="filter3972" width="1.214" height="1.273" x="-.107" y="-.137" color-interpolation-filters="sRGB"><feGaussianBlur id="feGaussianBlur3974" stdDeviation="13.656"/></filter><clipPath id="clipPath3994"><path id="path3996" d="m 350.52293,184.2513 a 157.07872,157.07872 0 1 1 -314.157436,0 157.07872,157.07872 0 1 1 314.157436,0 z" transform="matrix(1.1543408,0,0,1.1543408,295.94032,306.29867)" style="fill:#59f;fill-opacity:1;stroke:none"/></clipPath><clipPath id="clipPath3998"><path id="path4000" d="m 350.52293,184.2513 a 157.07872,157.07872 0 1 1 -314.157436,0 157.07872,157.07872 0 1 1 314.157436,0 z" transform="translate(0.43754843,0.43754843)" style="fill:#59f;fill-opacity:1;stroke:none"/></clipPath><filter id="filter4109" color-interpolation-filters="sRGB"><feGaussianBlur id="feGaussianBlur4111" result="result1" stdDeviation=".5"/><feBlend id="feBlend4113" in="SourceGraphic" in2="result1" mode="normal" result="result5"/><feGaussianBlur id="feGaussianBlur4115" in="result5" result="result6" stdDeviation="3"/><feComposite id="feComposite4117" in="result6" in2="result6" operator="xor" result="result8"/><feComposite id="feComposite4119" in="result6" in2="result8" operator="in" result="fbSourceGraphic"/><feColorMatrix id="feColorMatrix4121" in="fbSourceGraphic" result="fbSourceGraphicAlpha" values="0 0 0 -1 0 0 0 0 -1 0 0 0 0 -1 0 0 0 0 1 0"/><feGaussianBlur id="feGaussianBlur4123" in="fbSourceGraphic" result="result0" stdDeviation=".5"/><feSpecularLighting id="feSpecularLighting4125" in="result0" lighting-color="#fff" result="result1" specularConstant="2" specularExponent="55" surfaceScale="2"><fePointLight id="fePointLight4127" x="-5000" y="-10000" z="20000"/></feSpecularLighting><feComposite id="feComposite4129" in="result1" in2="fbSourceGraphicAlpha" k1="1" k2="0" k3="0" k4="0" operator="arithmetic" result="result2"/><feComposite id="feComposite4131" in="fbSourceGraphic" in2="result2" k1="0" k2=".5" k3="1" k4="0" operator="arithmetic" result="result4"/><feComposite id="feComposite4133" in2="result4" operator="over" result="result91"/><feBlend id="feBlend4135" in2="result91" mode="screen"/></filter><filter id="filter4244" width="1.5" height="1.5" x="-.25" y="-.25" color-interpolation-filters="sRGB"><feGaussianBlur id="feGaussianBlur4246" result="result8" stdDeviation="7"/><feComposite id="feComposite4248" in="result8" in2="result8" operator="xor" result="result6"/><feDisplacementMap id="feDisplacementMap4250" in="result6" in2="result6" result="result4" scale="75" xChannelSelector="A" yChannelSelector="A"/><feComposite id="feComposite4252" in="SourceGraphic" in2="result4" k1="2" k2="0" k3="0" k4="0" operator="arithmetic" result="result2"/><feComposite id="feComposite4254" in="result6" in2="result2" operator="in" result="fbSourceGraphic"/></filter></defs><metadata id="metadata7"/><g id="layer1" transform="translate(-187.24009,-341.37394)"><g id="layer1-0" transform="translate(-147.14286,7.1428526)"><path id="path3889" d="m 350.52293,184.2513 a 157.07872,157.07872 0 1 1 -314.157436,0 157.07872,157.07872 0 1 1 314.157436,0 z" clip-path="url(#clipPath3998)" transform="matrix(1.1543408,0,0,1.1543408,295.43524,305.79359)" style="fill:#ff2a2a;fill-opacity:1;stroke:none"/><path id="path3889-2" d="m 350.52293,184.2513 a 157.07872,157.07872 0 1 1 -314.157436,0 157.07872,157.07872 0 1 1 314.157436,0 z" transform="matrix(1.1543408,0,0,1.1543408,242.64733,245.12752)" style="fill:url(#radialGradient3964);fill-opacity:1;stroke:none"/><path id="path3966" d="m 396.2807,648.18186 c 52.95046,5.68282 52.2449,27.81547 158.57143,16.42857 117.87296,-78.36855 113.93301,-92.40126 107.85714,-82.14286 31.72279,-45.1821 21.2052,-81.31268 29.28571,-121.42857 2.25302,46.13789 34.48301,63.15528 -24.28571,168.57143 -20.79974,21.27554 -26.67741,41.55627 -101.42857,66.42857 -99.16214,17.52891 -131.53791,-17.56176 -170,-47.85714 z" clip-path="url(#clipPath3994)" style="opacity:.4424779;fill:#000;fill-opacity:1;stroke:#000;stroke-width:1px;stroke-linecap:butt;stroke-linejoin:miter;stroke-opacity:1;filter:url(#filter3972)"/><path id="rect4197-0" d="m 438.04959,437.89773 c -7.16149,7.16149 -3.69481,22.15878 7.77817,33.63176 l 47.50874,47.50875 -47.50874,47.50874 c -11.47298,11.47298 -14.93966,26.47027 -7.77817,33.63176 7.16149,7.1615 22.15878,3.69481 33.63176,-7.77817 l 47.50874,-47.50874 47.50874,47.50874 c 11.47298,11.47298 26.47027,14.93967 33.63176,7.77817 7.1615,-7.16149 3.69481,-22.15878 -7.77817,-33.63176 l -47.50874,-47.50874 47.50874,-47.50875 c 11.47298,-11.47298 14.93967,-26.47027 7.77817,-33.63176 -7.16149,-7.1615 -22.15878,-3.69481 -33.63176,7.77817 l -47.50874,47.50875 -47.50874,-47.50875 c -11.47298,-11.47298 -26.47027,-14.93967 -33.63176,-7.77817 z" transform="matrix(1.0292085,0,0,1.0264565,-15.164762,-13.731938)" style="fill:#fff;fill-opacity:1;stroke:#000;stroke-width:9.91289234;stroke-linecap:butt;stroke-linejoin:round;stroke-miterlimit:4;stroke-opacity:1;stroke-dasharray:none;filter:url(#filter4244)"/><path id="rect4197" d="m 438.04959,437.89773 c -7.16149,7.16149 -3.69481,22.15878 7.77817,33.63176 l 47.50874,47.50874 -47.50874,47.50874 c -11.47298,11.47298 -14.93966,26.47027 -7.77817,33.63176 7.16149,7.1615 22.15878,3.69481 33.63176,-7.77817 l 47.50874,-47.50874 47.50874,47.50874 c 11.47298,11.47298 26.47027,14.93967 33.63176,7.77817 7.1615,-7.16149 3.69481,-22.15878 -7.77817,-33.63176 l -47.50874,-47.50874 47.50874,-47.50874 c 11.47298,-11.47298 14.93967,-26.47027 7.77817,-33.63176 -7.16149,-7.1615 -22.15878,-3.69481 -33.63176,7.77817 l -47.50874,47.50874 -47.50874,-47.50874 c -11.47298,-11.47298 -26.47027,-14.93967 -33.63176,-7.77817 z" style="opacity:.66371681;fill:#fff;fill-opacity:1;stroke:#000;stroke-width:9.91289234;stroke-linecap:butt;stroke-linejoin:round;stroke-miterlimit:4;stroke-opacity:1;stroke-dasharray:none"/></g></g></svg>